<svg id="Layer_1" data-name="Layer 1" xmlns="http://www.w3.org/2000/svg" viewBox="0 0 519.67 445.78"><defs><style>.cls-1{fill:#fff;}.cls-2{fill:none;stroke:#fff;stroke-miterlimit:10;stroke-width:1.51px;}</style></defs><title>Artboard 1</title><path class="cls-1" d="M114.75,399.17q-5.93,7.18-16.8,11.21a70.85,70.85,0,0,1-24.15,4.1q-13.93.11-24.47-5.91A40.63,40.63,0,0,1,33,391q-5.79-11.53-6-27.16l-.05-7.3q-.12-16.06,5.23-27.85a40,40,0,0,1,15.5-18.1q10.15-6.28,23.87-6.39,19.1-.12,29.91,8.9t12.94,26.41l-21.53.15q-1.53-9.21-6.61-13.44t-13.92-4.18q-11.28.07-17.12,8.59T49.38,355.9l0,6.86q.12,16.88,6.59,25.46t18.85,8.49q12.45-.07,17.73-5.43l-.13-18.5-20.12.14-.11-16.29,42.23-.28Z"/><path class="cls-1" d="M297.34,389.37l-38.76.27-7.22,22.16-23.51.16,39.21-107.59,20.49-.14,40.9,107-23.51.16Zm-32.92-17.68,26.83-.19-13.76-40.07Z"/><polygon class="cls-1" points="357.14 393.31 404.09 392.99 404.21 410.75 335.15 411.23 334.42 303.91 356.53 303.76 357.14 393.31"/><path class="cls-1" d="M469,382.16q0-6.27-4.48-9.59t-16-7a112.92,112.92,0,0,1-18.26-7.21q-18.35-9.75-18.46-26.48a25.9,25.9,0,0,1,4.8-15.55,31.91,31.91,0,0,1,14-10.74,52.91,52.91,0,0,1,20.58-4,48,48,0,0,1,20.51,4,32.54,32.54,0,0,1,14.05,11.66,30.73,30.73,0,0,1,5.09,17.21l-22.11.15q0-7.37-4.72-11.43t-13.07-4q-8.12.06-12.58,3.51a10.85,10.85,0,0,0-4.44,9.06q0,5.24,5.33,8.74t15.56,6.53q18.91,5.55,27.59,13.89a28,28,0,0,1,8.77,20.87q.09,13.93-10.39,21.92T452.5,411.9a54.67,54.67,0,0,1-22.59-4.38q-10.2-4.45-15.6-12.31A31.84,31.84,0,0,1,408.84,377l22.19-.15q.12,17.76,21.35,17.61,7.88,0,12.28-3.29a10.39,10.39,0,0,0,4.36-9"/><path class="cls-1" d="M154,343.83a30.5,30.5,0,0,1,4.83-6.22L143,320.22a54.43,54.43,0,0,0-10.06,13.1Z"/><path class="cls-1" d="M192.86,331.55a30.45,30.45,0,0,1,6.65,4.16l15.89-17.35a53.83,53.83,0,0,0-14.09-8.79Z"/><path class="cls-1" d="M229.26,336.77l-21.07,10.51a30,30,0,0,1,2.11,7.44l23.44-2.21a53.5,53.5,0,0,0-4.48-15.74"/><path class="cls-1" d="M206.68,344.23l21.07-10.5a54,54,0,0,0-9.85-13.07L202,338a30.59,30.59,0,0,1,4.67,6.22"/><path class="cls-1" d="M149.81,359.2c0-.47,0-.95,0-1.42l-23.45-2.09c-.07,1.16-.11,2.33-.11,3.51a53.84,53.84,0,0,0,1.59,13l22.64-6.49a30.71,30.71,0,0,1-.71-6.55"/><path class="cls-1" d="M203.73,378.47a30.73,30.73,0,0,1-5.72,5.38l12.38,20a54.06,54.06,0,0,0,12.12-11.26Z"/><path class="cls-1" d="M210.63,359.2a30,30,0,0,1-.7,6.47l22.64,6.51a54,54,0,0,0,1.58-13c0-1.11,0-2.21-.1-3.31l-23.44,2.22c0,.36,0,.72,0,1.09"/><path class="cls-1" d="M157.09,378.92l-18.74,14.24a54.54,54.54,0,0,0,12.24,11.09l12.37-20a30.49,30.49,0,0,1-5.87-5.3"/><path class="cls-1" d="M150.19,354.4a30,30,0,0,1,2.25-7.55l-21.07-10.49a53.54,53.54,0,0,0-4.64,15.94Z"/><path class="cls-1" d="M207.51,405.7l-12.36-20a30.14,30.14,0,0,1-7.21,2.93l4.36,23.15a53.69,53.69,0,0,0,15.21-6.07"/><path class="cls-1" d="M209,369a30.31,30.31,0,0,1-3.29,6.77l18.8,14.18a53.87,53.87,0,0,0,7.11-14.45Z"/><path class="cls-1" d="M184.61,389.29a30.24,30.24,0,0,1-4.39.32,29.52,29.52,0,0,1-3.54-.21l-4.36,23.16a55,55,0,0,0,16.64-.13Z"/><path class="cls-1" d="M182.16,328.85a30.63,30.63,0,0,1,7.53,1.45l8.46-22a53.65,53.65,0,0,0-16-3Z"/><path class="cls-1" d="M173.33,388.82a29.92,29.92,0,0,1-7.46-2.82l-12.39,20A53.35,53.35,0,0,0,169,412Z"/><path class="cls-1" d="M171.08,330.2a30,30,0,0,1,7.68-1.37V305.29a53.6,53.6,0,0,0-16.19,2.95Z"/><path class="cls-1" d="M155,376.21a29.67,29.67,0,0,1-3.59-7.19l-22.63,6.5a53.89,53.89,0,0,0,7.48,14.93Z"/><path class="cls-1" d="M161.38,335.35a30.64,30.64,0,0,1,6.52-4l-8.51-21.95a53.74,53.74,0,0,0-13.87,8.5Z"/><path class="cls-1" d="M55.07,208.1a4.85,4.85,0,0,0-1.83-4,22.86,22.86,0,0,0-6.44-3,60.11,60.11,0,0,1-7.54-3q-9.53-4.68-9.52-12.85A11.55,11.55,0,0,1,32.11,178a15.34,15.34,0,0,1,6.71-4.84,26.07,26.07,0,0,1,9.76-1.73,22.78,22.78,0,0,1,9.47,1.88,15.07,15.07,0,0,1,6.51,5.37,14,14,0,0,1,2.32,8H55.11A5.91,5.91,0,0,0,53.27,182a7.13,7.13,0,0,0-5-1.65,8.09,8.09,0,0,0-5,1.4,4.11,4.11,0,0,0,.19,7,25.39,25.39,0,0,0,7.1,3.17,43.75,43.75,0,0,1,8.34,3.51Q66.89,200,66.88,208A11.94,11.94,0,0,1,62,218.12q-4.84,3.67-13.29,3.67A26.47,26.47,0,0,1,38,219.66a16.23,16.23,0,0,1-7.26-5.86,15.22,15.22,0,0,1-2.44-8.56H40.1c0,2.62.68,4.56,2,5.8s3.56,1.87,6.61,1.87a7.59,7.59,0,0,0,4.62-1.26,4.15,4.15,0,0,0,1.7-3.55"/><path class="cls-1" d="M112.06,172.13v32.06a18.48,18.48,0,0,1-2.32,9.44,15,15,0,0,1-6.67,6.08,23.45,23.45,0,0,1-10.26,2.08q-9,0-14.1-4.64c-3.43-3.1-5.18-7.33-5.25-12.72v-32.3H85.34v32.54q.19,8,7.47,8a7.22,7.22,0,0,0,5.55-2c1.26-1.35,1.89-3.53,1.89-6.56v-32Z"/><path class="cls-1" d="M145.38,208.1a4.85,4.85,0,0,0-1.83-4,22.86,22.86,0,0,0-6.44-3,60.11,60.11,0,0,1-7.54-3q-9.52-4.68-9.52-12.85a11.55,11.55,0,0,1,2.37-7.19,15.34,15.34,0,0,1,6.71-4.84,26.07,26.07,0,0,1,9.76-1.73,22.78,22.78,0,0,1,9.47,1.88,15.07,15.07,0,0,1,6.51,5.37,14,14,0,0,1,2.32,8H145.42a5.91,5.91,0,0,0-1.84-4.65,7.13,7.13,0,0,0-5-1.65,8.09,8.09,0,0,0-5,1.4,4.11,4.11,0,0,0,.19,7,25.39,25.39,0,0,0,7.1,3.17,43.75,43.75,0,0,1,8.34,3.51q8,4.58,7.94,12.62a11.94,11.94,0,0,1-4.84,10.09q-4.84,3.67-13.29,3.67a26.47,26.47,0,0,1-10.79-2.13A16.23,16.23,0,0,1,121,213.8a15.22,15.22,0,0,1-2.44-8.56h11.84c0,2.62.68,4.56,2,5.8s3.56,1.87,6.61,1.87a7.59,7.59,0,0,0,4.62-1.26,4.15,4.15,0,0,0,1.7-3.55"/><polygon class="cls-1" points="202.4 181.25 187.69 181.25 187.69 221.12 175.88 221.12 175.88 181.25 161.45 181.25 161.45 172.13 202.4 172.13 202.4 181.25"/><path class="cls-1" d="M231.86,212H215.67l-2.82,9.15H200.23l18-49h11.1l18.1,49H234.72Zm-13.36-9.12H229l-5.28-17Z"/><rect class="cls-1" x="252.46" y="172.13" width="11.78" height="48.99"/><polygon class="cls-1" points="314.06 221.12 302.31 221.12 284.95 190.64 284.95 221.12 273.14 221.12 273.14 172.13 284.95 172.13 302.28 202.61 302.28 172.13 314.06 172.13 314.06 221.12"/><path class="cls-1" d="M350.65,212H334.46l-2.82,9.15H319l18-49h11.1l18.1,49H353.51Zm-13.36-9.12h10.53l-5.28-17Z"/><path class="cls-1" d="M370.45,221.12v-49h17.6q9.45,0,14.38,3.46t4.93,10.07a11.64,11.64,0,0,1-1.75,6.49,10.17,10.17,0,0,1-5.15,4,10.31,10.31,0,0,1,5.89,3.77,10.94,10.94,0,0,1,2,6.73q0,7.2-4.56,10.82t-13.51,3.68Zm11.81-28.57h6.16q3.87,0,5.52-1.42a5,5,0,0,0,1.64-4.08q0-3.11-1.78-4.47t-5.75-1.37h-5.79Zm0,7.74V212H390a7.33,7.33,0,0,0,4.91-1.47,5.1,5.1,0,0,0,1.72-4.12q0-6.12-6.09-6.16Z"/><polygon class="cls-1" points="427.4 212.03 447.96 212.03 447.96 221.12 415.59 221.12 415.59 172.13 427.4 172.13 427.4 212.03"/><polygon class="cls-1" points="484.01 200.33 465.44 200.33 465.44 212.03 487.38 212.03 487.38 221.12 453.63 221.12 453.63 172.13 487.44 172.13 487.44 181.25 465.44 181.25 465.44 191.58 484.01 191.58 484.01 200.33"/><path class="cls-1" d="M29.76,287.38v-48H45.22a22.79,22.79,0,0,1,11.44,2.88,20.34,20.34,0,0,1,7.93,8.15,24.54,24.54,0,0,1,2.88,11.78v2.21a24.67,24.67,0,0,1-2.78,11.82,20.47,20.47,0,0,1-7.85,8.18,22.31,22.31,0,0,1-11.29,3Zm11.57-39.07v30.17h4A9,9,0,0,0,53,274.94q2.67-3.56,2.67-10.54v-2.08q0-6.94-2.67-10.48a9.16,9.16,0,0,0-7.78-3.53Z"/><polygon class="cls-1" points="100.64 267.01 83.65 267.01 83.65 278.48 103.94 278.48 103.94 287.38 72.08 287.38 72.08 239.38 104 239.38 104 248.31 83.65 248.31 83.65 258.44 100.64 258.44 100.64 267.01"/><polygon class="cls-1" points="129.31 274.32 138.87 239.38 151.8 239.38 135.64 287.38 122.98 287.38 106.96 239.38 119.78 239.38 129.31 274.32"/><polygon class="cls-1" points="183.69 267.01 166.86 267.01 166.86 278.48 186.99 278.48 186.99 287.38 155.29 287.38 155.29 239.38 187.05 239.38 187.05 248.31 166.86 248.31 166.86 258.44 183.69 258.44 183.69 267.01"/><polygon class="cls-1" points="202.53 278.48 220.85 278.48 220.85 287.38 190.96 287.38 190.96 239.38 202.53 239.38 202.53 278.48"/><path class="cls-1" d="M263.9,264.37a28.28,28.28,0,0,1-2.61,12.43,19.18,19.18,0,0,1-7.4,8.32A20.54,20.54,0,0,1,243,288a20.94,20.94,0,0,1-10.89-2.82,19.28,19.28,0,0,1-7.4-8.06,27.54,27.54,0,0,1-2.78-12v-2.71A28.34,28.34,0,0,1,224.49,250a19.11,19.11,0,0,1,7.42-8.33,22,22,0,0,1,21.87,0,19.45,19.45,0,0,1,7.43,8.26,27.56,27.56,0,0,1,2.69,12.28Zm-11.77-2q0-7.16-2.39-10.87a7.66,7.66,0,0,0-6.84-3.7q-8.7,0-9.2,13l0,3.53q0,7,2.34,10.85a7.67,7.67,0,0,0,7,3.79,7.57,7.57,0,0,0,6.76-3.73q2.37-3.72,2.4-10.71Z"/><path class="cls-1" d="M280.07,271.09v16.29H268.5v-48h19.15a22.17,22.17,0,0,1,9.74,2,15.2,15.2,0,0,1,6.56,5.77,15.72,15.72,0,0,1,2.33,8.48,13.89,13.89,0,0,1-5,11.23q-5,4.2-13.8,4.2Zm0-8.93h7.58a7.17,7.17,0,0,0,5.13-1.68,6.26,6.26,0,0,0,1.76-4.75,7.71,7.71,0,0,0-1.81-5.37,6.43,6.43,0,0,0-5-2.05h-7.71Z"/><polygon class="cls-1" points="325.72 239.38 336.44 272.78 347.12 239.38 362.35 239.38 362.35 287.38 350.74 287.38 350.74 276.17 351.86 253.23 340.26 287.38 332.61 287.38 320.97 253.19 322.1 276.17 322.1 287.38 310.52 287.38 310.52 239.38 325.72 239.38"/><polygon class="cls-1" points="396.12 267.01 379.07 267.01 379.07 278.48 399.41 278.48 399.41 287.38 367.5 287.38 367.5 239.38 399.48 239.38 399.48 248.31 379.07 248.31 379.07 258.44 396.12 258.44 396.12 267.01"/><polygon class="cls-1" points="443.39 287.38 431.89 287.38 414.88 257.51 414.88 287.38 403.31 287.38 403.31 239.38 414.88 239.38 431.86 269.25 431.86 239.38 443.39 239.38 443.39 287.38"/><polygon class="cls-1" points="487.44 248.31 473.04 248.31 473.04 287.38 461.46 287.38 461.46 248.31 447.32 248.31 447.32 239.38 487.44 239.38 487.44 248.31"/><path class="cls-1" d="M308.56,58a54.56,54.56,0,0,1,3.63,38.66c-3.77,14.71-16.14,29.58-30.55,35.63-16.22,7.95-39.26,6-53.72-4.4-20.1-13.77-28.32-37.5-22.24-60.92,3.68-13.92,14.76-28,28.32-34.42a57.93,57.93,0,0,1,25-5.94A55.26,55.26,0,0,1,308.56,58m-48.44-28.7a39,39,0,0,1,.08,7.59,1.12,1.12,0,0,1,.25-.66c.38-.22.71.11.88.38s.19,1.05-.14,1.27c.33,0,.49-.2.8-.2A41.1,41.1,0,0,1,279.34,43v-.13c1.07-.53,2.44-1.21,3.54-.28,1.32-.49,1.57,1.13,2.64,1.32,1.29.77,2.75,2.2,2.91,3.71.25.5,1,.86,1.13,1.38.88-1.87,2.64-3.19,4.15-4.81l.94-.39A51.25,51.25,0,0,0,265.48,30c-1.76-.3-3.69-.14-5.36-.66m-3.08.27a53.53,53.53,0,0,0-29.59,10.48c-1.67,1.15-3.16,2.91-4.86,3.9h.24a46.74,46.74,0,0,1,6.08,5.86l.14-.39a43.67,43.67,0,0,1,28.1-11.82L256.9,37l-.08-6.6Zm9.43,4.16-4,1.7c-.33-.14-1-.3-1.18.14-.17.14,0,.33.05.47,1.46,1.86,4,.82,5.8.46a3.5,3.5,0,0,0,3.58-.93v-.19c-.94-1.32-2.7-1.52-4.29-1.65m-6.41,6.79.28.52c-.06,2.56.11,5.28-.14,7.67,1-.36,2.11.08,3.16.11a32.14,32.14,0,0,1,14.79,5.94,3.91,3.91,0,0,1-1.26-2,.29.29,0,0,1,.33-.11c0-.85-.86-1.29-1-2.06a.55.55,0,0,1,.6-.25,17.72,17.72,0,0,1,2.42,2.83c.61-.25,1.1.14,1.54.47.8.47.3,1.48.91,2,.11,1.63,2.09,2.53,2,4.16,0,.38.49.08.66.27l1.65,2a.82.82,0,0,0,.27,1.13c.75.33,1.16-.6,1.9-.46,1.07.6-.17,1.31-.05,2,.41,0,.93-.33,1.26.09.14.6-.49,1-.74,1.37,0,.61.49.47.93.61a.74.74,0,0,1,.66,1c1.38,1.44-.41,3,.25,4.49a2.61,2.61,0,0,1-.71,2.69c0,1.21-1.08,2-1.52,3l-1.4.28c-.74.74.63,1.65-.11,2.11l3.08.06-.33-.33a4.56,4.56,0,0,1,.41-3.91c.47-1,.58-2.17,1.46-3,.19,0,.55-.41.72,0a5.56,5.56,0,0,1-.47,2.83c.88,1.27.77,2.92.85,4.48,2.72-.16,5.39-.22,8.05-.19l-.24-.52a39.57,39.57,0,0,0-3.58-14.24c-.57,0-1,.49-1.65.33a.54.54,0,0,1-.33-.55c-1.1-1-1.78-2.42-3-3.36-1.4.14-2-1.48-3.3-1.65-1.13-.46-.36-2.28-2-1.79a2.61,2.61,0,0,1-1.73-1.84,4.52,4.52,0,0,0-1.57-3.9c-1-.36-1.4,1-2.39.74-.55-.27-.3-1-.47-1.46s-.66-.71-.57-1.26c1.29-1.71-1.57-1.68-.94-3.35-.17-1.21-1.4-1.68-2-2.64A44.51,44.51,0,0,0,263.36,41c-1.18-.16-2.28.09-3.3-.46m24.88,0c-.58.55-1.07-.49-1.59.14a1.15,1.15,0,0,0,.19.8c1.15.41,1.29,2.09,2.78,1.7.44-.49-.28-1-.14-1.65a1.64,1.64,0,0,0-1.24-1M235.59,48c-1.7,1.18-3.27,2.72-5,3.76,2,1.3,3.71,3.44,5.56,5.15l.19.52a32.92,32.92,0,0,1,16.49-8.36c1.46-.14,2.92-.63,4.35-.33a55.12,55.12,0,0,1-.06-7.92A42.27,42.27,0,0,0,235.59,48m61.09-2.5a63.26,63.26,0,0,1-5.47,5.88l-.93.19c.57.14.74.83,1.12,1.24,2,1.07,2.53,3.22,4.29,4.43,1,2.06,3.28,3.65,3.36,6a43.74,43.74,0,0,1,4.18,17.07l-.22.33a1.12,1.12,0,0,0,.65-.25l7.92-.13c-.52-.77-.3-1.9-.43-2.84-1-12.23-6.27-22.71-14.47-31.94m-75.61.19c-7.83,8.71-12.67,18.67-14.07,30-.3,1.65-.11,3.36-.44,5a54.69,54.69,0,0,1,8.49,0l-.19-1.07a44.67,44.67,0,0,1,8.25-23.56c1.24-1.4,2.14-3.16,3.68-4.21-1.78-1.68-3.65-3.63-5.52-5.47Zm36.16,5.75-.47.27c-7,.49-13,3.41-18.34,7.78,2.09,1.46,4,3.79,5.86,5.47a7,7,0,0,0,.41-.6A25.18,25.18,0,0,1,253.08,60c1.37-.13,2.72-.8,4.15-.46a36.65,36.65,0,0,1,0-8.11m2.89,0,.27.6-.05,7.46.71-.14a24.13,24.13,0,0,1,12.34,5l.2.58c1.23-1.74,3.1-3.22,4.56-4.87l1.38-.8-.66-.27a32.27,32.27,0,0,0-9.9-5.72,48.94,48.94,0,0,0-8.85-1.87m-31.54,2.06-.05.52-3,3.77c-4.87,6.68-7.18,14.41-7.87,22.82l7.54-.14.71.28c-.3-.2-.22-.52-.33-.8a33.24,33.24,0,0,1,8.77-20.65,54.76,54.76,0,0,1-5.8-5.8m52.6,7.65-.14.32c-2.53,2.64-5.31,5.37-7.73,8.06a1.93,1.93,0,0,0,.75.8c.11-.66.46-1.24.52-1.93.66-.9,1.65-.33,2.5-.13,1.32-.31,2.56.3,3.9.27,1,.49,1.08,1.76,2,2.25a.78.78,0,0,1-.27,1.05C283,74,284,71.35,285,71.84c.44.17,1,.12,1.32.58.16.86,1.21.69,1.26,1.51-.08.42-.52.53-.79.75.24.82-.86,1.34-.47,2.22,1.59.31,1.65-1.54,2.39-2.36a14.81,14.81,0,0,0-1.54-4.15c-.91-.19-1.46-1.27-2.37-1.46-1.75-.69.28-1.79.06-2.83a32.59,32.59,0,0,0-3.68-4.89m-44.73.27a32.39,32.39,0,0,0-7.4,15.23c-.3,1.32-.14,2.86-.66,4.1a6.83,6.83,0,0,1,3.43-.14c-.63-.33-.11-1.13-.46-1.57-.08-.68-.19-1.54.46-2-.08-1.12,1.13-1.7,1.24-2.72.31-1.15,1.62-.38,2.26-1,.41-.22.05-.6.05-.91.55-.74,1.4-.71,2.06-1.12a5.88,5.88,0,0,1,1.85-1.93c1.65.06,1.67-2.25,3.24-2.31a63.82,63.82,0,0,1-6.07-5.66m23.75.91c.52,1.57.05,3.87.38,5.69l2,.66c.58-1,1.85-1.16,2.4-2.06.35-.31.76,0,1,.33a5.49,5.49,0,0,1-.33,2.19c-.74,1.49-2.5,1.68-3.49,2.76.63.35,1-.31,1.51-.45a3.38,3.38,0,0,1,1.84,1.24c.5.22,1-.08,1.4-.25.31-2.28,3.17-2,4-4.09l-.52.19c-.22-.3-.77-.16-.75-.66a5.82,5.82,0,0,1,1.65-1.32,27.84,27.84,0,0,0-7.83-3.57,27.14,27.14,0,0,1-3.3-.66m-14.79,5.74h.6c.66.66,1.73.53,2.23,1.41.25.49-.47.44-.44.85.14.11.33.14.44.33.52.19.41-.3.61-.52.68-.69.79.65,1.45.65a1,1,0,0,1,1.46.2c.44-.39,1.37,0,1.51-.74.85-.91.39-2.32,1.65-2.89.44.25,0,.66.14,1,.85.36,1.81-.71,2.5.14-.63-1.79-.47-4-.41-6-4.43.57-8.5,2.09-11.74,5.52m13.33,4.57c-.44-.5-1.4-.2-2,0,.55.55.33,1.54.66,2.22-.82,1.38-2.2,1.68-3.49,2.07-.36.44-.27,1.4-1.13,1.32-.27.6-1.21,1-.85,1.84-.44.93-.22,2.14-.47,3.16-1.62,1-1.15-1.35-2-1.84l-.27.46c-.33.09-.55-.1-.77-.33-.25-.08-.66-.16-.88.06-.36.61-.91,1.1-.77,1.92-.17.5-1,.33-.88.86a16.18,16.18,0,0,0,2.78-.39c.63.17,1.15-.3,1.78-.33a.6.6,0,0,1,.39.66h.22a1.11,1.11,0,0,0,.44-1.32c.05-.57.69-.57,1.07-.74.36.17.14.52.19.8,1.24.46-.3,1.37-.46,2-.33.52,0,1.71-1.05,1.54a.38.38,0,0,1-.27-.47h-.14a1.41,1.41,0,0,0,.74,1.24c.77-.63.8-1.7,1.9-1.84.57-.61-.25-1.54.6-2,1.43,0,3-.63,4.1.53-.08.49-.28.71.14,1.12a5.48,5.48,0,0,1-1,1.84,1,1,0,0,1-.28,1.05c-.38,1.68-2.31.88-3.43,1.46a8.72,8.72,0,0,0,6.07,1.65c1.18-.06.66-1.51,1.27-2.17.38-1.93,2.14-.61,3.21-1.13a7.6,7.6,0,0,0,.94-2.56,1.82,1.82,0,0,1-.74-2.06c-.47-.63-.42-1.79-1.44-1.9-.16-.22,0-.49.12-.66,0-.6.57-.79.74-1.26-.63-.41-.47-1.32-.41-1.84-1.08.3-1.19-1.1-2-1.41-.2-.63-.88-.74-1.43-.85-1.32.63-1.54-1-2.53-1.37-.11-.3-.33-.74,0-1,.49-.41,1.15-.06,1.73-.09Zm-23.89,6.79c-2.23.71.36,2.39-.19,3.77-.31.79-1.13,0-1.71.38l-.22,1.46c-.33.85-1.4.22-1.9.79s0,1.13.34,1.57c-.77,1.76,1.73,2.31,1.7,3.91.77,1-.11,2.41,1,3.3.25,1.78-.25,4.2,1.32,5.6l.27,1.71c.34,1.18-1.4.88-1.18,1.92.33-.16.41.28.44.39v-.06a73.82,73.82,0,0,1,7.07-7.2l-1.05-1a27.45,27.45,0,0,1-4.23-9.43l-.8-.41a23.05,23.05,0,0,0-.38,2.45l-.28.33c-.58,0-.93-.5-1.43-.8-.11-.3-.41-.8.06-1.05a1,1,0,0,1,.66.2c.24-.31.13-.74.27-1.13.08-.66-.49-1.26-.08-1.84.52-.06.91.58,1.13.93.52.17.93-.27,1.37-.46,0-.47.66-1.1-.05-1.38a6.46,6.46,0,0,0-.06-3.24c-.3-.91-1.32-.74-2.06-.66m51.47.93c-.22.11-.52,0-.8.06a2,2,0,0,1,.8-.06m-1.71,2.7.86.85c.85.58.27,1.81,1.18,2.31,1.07.55,1.46,1.79,1.92,2.72a2.74,2.74,0,0,0,.25-.8c.38-1.51.33-3.21.8-4.7-1.65.08-3.55.25-5-.38m18.81.38-.47-.33.28.74a44.26,44.26,0,0,1-8.72,24.42,18.71,18.71,0,0,1-3.24,3.55,58.16,58.16,0,0,1,6.13,6l.22-.42c8.41-9.59,13.19-20.7,13.72-33.57l.33-.65-.42.19Zm-11-.19a29.24,29.24,0,0,1-.38,5l.91,1a1,1,0,0,1-.2,1.26,1.07,1.07,0,0,1-1.26-.08,36.05,36.05,0,0,1-4.81,10.5c-.91,1.16-1.79,2.75-3,3.36l2.5,2.2c.14-.14.06-.36.08-.55s.17-.72.58-.66c1.21,0,1.24,1.26,1.93,1.92-.14,1,.77,1.87.46,2.83,6.93-7.31,10.4-16.27,11-26.2l.38-.44c-2.47.25-5.08.08-7.64.11Zm-64.14.08.41.66c.06,1.82.77,3.55.39,5.39.3-.52.38-1.24,1-1.57.09-.49-.66-.63-.57-1.12.52-1,0-2.67,1.37-3.11a3.16,3.16,0,0,1-2.64-.25M215,83.5l-.74.28-7.65-.06a56,56,0,0,0,6.74,24.14c2,3.63,4.81,6.9,7.31,10.28l5.47-5.66.66-.28a16.34,16.34,0,0,1-2.55-2.63,3.78,3.78,0,0,1-2.31-1.76c-.28-.31,0-.86-.33-1.07l-.33.41c-1,.46-1.32-.53-2-.94-.85-.47-.44-2.09-1.6-1.78-.44,0-.57-.53-.85-.8-1.07.11-1.35-1.08-1.92-1.65-.11.25,0,.57-.33.74-1.1.25-1.49-1.1-2.23-1.65-.19.08-.33.3-.61.25A3.26,3.26,0,0,1,210.63,99c-.91-1-.5-2.64-.33-3.88.16-.33.63-.52.55-.93.25-.58.85-.64,1.43-.66a1.45,1.45,0,0,1,.55.52c.35-.22,1.15,0,.85-.77a3.63,3.63,0,0,1,1.79-.66,12,12,0,0,0,1.23,1.7l-.38-.6A43.55,43.55,0,0,1,215,85.37c0-.16-.36-.25-.14-.41l.06.08A7.9,7.9,0,0,1,215,83.5m10.75,0-.61.28a64.24,64.24,0,0,1-7.64-.2l.33.47.61,5.06c.24,2,1.1,3.82,1,5.75.3-.42.11-1.24.85-1.32-.3-.61.58-1.13.09-1.65.24-1.32.41-2.67,1.56-3.63,1.41-.06,1.52-1.9,2.92-2,.71,0,1.15.93,1.45,1.26-.88-1.07-.82-2.83-.6-4m14.13,3.38c.77,1.43,1.18,3.05,2,4.49.5,1.26,1.59,2.25,2.09,3.49a19.24,19.24,0,0,1,2.31-2.7,1.45,1.45,0,0,0-.25-1.07c-.24-.58,0-1.4-.46-1.9-.72.25.24,1-.06,1.38a.44.44,0,0,1-.66-.33A1.82,1.82,0,0,1,243.51,89c.52-.33-.14-.47-.28-.74s-.3-.11-.52.14a.71.71,0,0,1-.41-.06c0-1.57-1.76-.63-2.42-1.46m8.63,2.18a4,4,0,0,1-1.12,1.78l.08.06c.66-.47,1.13-1.32,2-1.38Zm21.72,2.25a2,2,0,0,0,.45,1.32c1.07-.16.6,1.32,1.59,1.18.55-.16,0-.63.19-1-.16-.82-1-.9-1.51-1.4-.06-.16.05-.3.14-.44-.41-.22-.61,0-.86.33m15.57.06c-.8-.06-1.76.41-2.45-.14-.25-.22-.41.11-.39.33-.27.41-.55.93-1.18.74s-.49-.74-.66-1.13A2.72,2.72,0,0,1,281,92a10.07,10.07,0,0,0-1.18,1.84c-.58.63-1.51.41-2.11.93-.11,1.32-1.57,1-2.4,1.46-.05.16.14.19.22.33a1,1,0,0,0,1.18-.28c1.16.31.91-1.15,1.57-1.64.58-.09,1.13-.58,1.73-.2a3.85,3.85,0,0,1,.66,2.78c-.66.66-.33,1.73-.79,2.5.11.91-1,1.32-.86,2.23a1.93,1.93,0,0,1-1.51.46,26,26,0,0,0-6.87-1.56.48.48,0,0,0-.33.52c1,.52,2.2.55,3.24,1,.94.25,1.57,1.4,2.75,1,1-.55,2.64.34,3.3-.71-.11-1,.77-1.76,1.21-2.64l.33-.08c.55.58.52,1.43.77,2.06.77-.82,1.38-1.73,2.06-2.58a24.56,24.56,0,0,0,4-8.5,8.24,8.24,0,0,0-2.17.39m-34.64,0c-1.19,1.92-3.44,3.68-5.09,5.47A20.92,20.92,0,0,0,256,101.4c.2-.74-.11-1.68.28-2.31s1-.58,1.57-.47a.46.46,0,0,0,.33-.71c-.8-.17-.44-1-.72-1.54,0-.28.5-.22.39-.58-.55-.44.27-.93-.2-1.4.2-.14.33-.44.61-.44-1.73.91-3.6-.19-5.14-.88-.72-.41-1.76-.82-1.92-1.7m16,4.81c-.08.22-.39.6,0,.74.66-.69,2.06-.66,2.11-1.65-1-.14-1.45.39-2.11.91m3.1,2.06c-.85,0-1.29.66-1.92,1.18s-1.15-.82-1.79-.52c0,.14.17.19.28.25a.62.62,0,0,1,0,.79c-.94.86-1.38-.41-2.26-.33v.33c0,.2-.05.5-.33.39-.55-.91-1.67-.58-2.22-1.38-.36-.19-.69.06-.94.28-.19.41-1.07-.06-.85.66-.69.25-.77,1-1.27,1.43-.85-.14-1.23.82-2,.8.08.16,0,.43.25.46a2.72,2.72,0,0,0,1.59.19c.83-1.32,2.2-.22,3.36-.71.71.14.21.91.74,1.18,1.12-.36,2,1,2.88.14-.05-1.29,1.41-1.18,2.21-1.51,1.23-.74,2.63-1.73,2.5-3.38ZM243.7,99a40.94,40.94,0,0,1-5.47,5.61c.85,0,1.32,1,2,1.4,4.13,3.44,9.27,5.09,14.06,6.27l-1.33-.61c-1-1.12-2.39-2.44-2.44-4,1-.33.88-1.43,1.21-2.17a5.5,5.5,0,0,1,2.89-1.6c-2.78,1.16-5.2-.9-7.51-2-1.18-.88-2.72-1.59-3.44-2.91m38.19,7.67-.19-.52a4.45,4.45,0,0,1-1.24,1.56c0,.44-.14,1.1.39,1.41,1.1.35,2.53,1.07,2.77,2.36-.44,1.21-2.75,2.31-1.32,3.63.47.66-.66.91-.46,1.46l.38-.53a38.64,38.64,0,0,0,4.9-4.09h.19c-.33-.11-.74.22-1.13.05-.77-.35-.91-1-.91-1.84Zm-44.21,1-.11-.19.11.33Zm.88,1.19a1.2,1.2,0,0,1-.66-.86Zm.19.22c.17.66,1.05,1.07.8,1.89a2.34,2.34,0,0,1-2.2.75c-1.56-.25-2.72.93-4.2,1.09-1.35.42-1.82-1.23-3.06-1.09,7.65,6.68,16.39,10.86,26.62,11.4l.77.53-.33-.94V115.5l-.66.28a31.92,31.92,0,0,1-17.74-6.65m50.81,5.14-.14-.66c-.77,1.51-2.47,2.47-3.76,3.63-1.79,1.78-4.7,2.17-5.61,4.75-1,.88-1.29,2.26-2.64,2.75-.49,1.32-1.9,1.24-2.7,2.2-2.3,2.06-3.79-1.32-5.88-1.73l-4.2.74c-1.46,0-2.92.53-4.29.06a65.4,65.4,0,0,1,0,8.63l.52-.33c13.25-.58,24.69-5.61,34.5-14.52Zm-61-.08-.09.33-5.66,5.69c8.58,7.42,18.26,12.2,29.31,13.72,1.76.3,3.76.13,5.47.65l-.41-.65v-7.45l.27-.42-.85.22c-10.72-.74-20.21-4.54-28-12.09m31.39,1.92.42.61a57,57,0,0,1,0,6.79c2-.69,4.4-.58,6.59-.94a2.22,2.22,0,0,1-1.21-.72c-1.29-.08-1.89-1.42-2.3-2.44-.2-.74.3-1.35.6-2-.55-1.13-2.25-.3-3.24-.71-.28-.22-.47-.56-.86-.61"/><path class="cls-1" d="M310.48,37.07c4,3.6,5.86,8.27,7,13.11l.66,1.54a58,58,0,0,1-14.9-15.84l-4.56-4.62c4,1.71,8.33,2.73,11.76,5.81"/><path class="cls-1" d="M208.26,44.24c-2.69,3.33-6.13,5.53-9.18,8.39,1.65-3.41,1.71-7.48,4-10.62,3.33-5.8,9.49-7.83,15-10-4,3.55-6.85,8-9.85,12.21"/><path class="cls-1" d="M324.78,50.32c1.29,5.77-.57,11.41.61,17.24l-.06,0c-3.13-6.19-9.82-9.1-14.41-14-2.66-2.94-3.82-6.51-4.48-10.31,2.64,6.35,9.74,7.75,13.8,13.09,1.38,1.23,1.82,2.94,2.7,4.34l.14-.14c-2.34-5-3.14-10.63-4.76-16a12.45,12.45,0,0,0-4.62-6c5.34,1.1,10,6.68,11.08,11.8"/><path class="cls-1" d="M203.26,39.51c-5.44,3.74-5.09,10.45-6.82,16-.55,2.06-1.51,4-2,6.08l.14.11a18.84,18.84,0,0,1,4.48-6.6c3.88-3.57,9.6-5.8,11.49-11.08-.08,7.34-6.21,13.11-12.07,17.24a24.21,24.21,0,0,0-6.07,7.25c-.14-1.84.27-3.7.13-5.69-.63-6.4-1.1-13.71,3.44-18.47a13.65,13.65,0,0,1,7.26-4.87"/><path class="cls-1" d="M328.22,51.58c4.86,6.6,5.94,17.1,2.39,24.66a43.88,43.88,0,0,0-2.78,10.18c-.24-.61-.3-1.43-.52-2.12-1.92-7.4-8.93-12.68-11.82-19.66a36.34,36.34,0,0,1-2.12-7.12c3.08,5.69,10.67,8.64,12.73,14.9.85,1.6.8,3.58,1.32,5.28a.21.21,0,0,0,.22-.19,71.85,71.85,0,0,1,.25-19.6c-.06-3.47-.39-6.82-2.31-9.49,1.23.71,1.79,2.09,2.64,3.16"/><path class="cls-1" d="M191.63,49.52c-4.18,6.35-.72,14.35-.91,21.58l-.55,7.4c.08,0,.08.27.28.19.24-.82.3-1.7.46-2.56,1-6,6.16-10.2,10.7-14.32a11.69,11.69,0,0,0,2.31-3.44,30.49,30.49,0,0,1-2.53,8.72c-3.52,6.87-10,12.51-11.22,20.37-.57-7.53-5.72-13.17-5.19-21.17-.17-6.49,2.52-11.79,6.32-16.63.11-.06.19-.17.33-.14"/><path class="cls-1" d="M332.78,94.39c-2.88,4.1-6.37,7.92-9,12.1.3-3.3.68-7.37-.61-10.51a90.7,90.7,0,0,1-4.81-21l.08-2.83c1.68,7.56,9.1,12.75,8.64,21.22a18.61,18.61,0,0,1-.86,5.61l.14.14.33-.39c1.1-4.15,1.65-8.52,3.36-12.4,2.44-5.58,5.47-11.22,4.23-18,3.71,7.94,2.58,18.56-1.46,26"/><path class="cls-1" d="M189.51,91.75c.8,2.78,1,5.78,2.12,8.39.11,0,.19-.06.27-.14-2.83-7.92,1.24-15.26,5.34-21.45a20.8,20.8,0,0,0,2.06-5.47c.44,3.58-.47,7.7-1,11.41-1,4.73-2.48,9.21-3.77,13.8a21.65,21.65,0,0,0-.19,9.11l-.41-.33c-3-5.53-8.94-9.85-10.7-15.9-1.45-4.81-2.42-10.39-1.42-15.64a28.6,28.6,0,0,1,1.7-6c-1.68,8.57,4.1,14.76,6,22.21"/><path class="cls-1" d="M321.43,107.4a19.64,19.64,0,0,1-3.36,10h.33c2.64-3.46,4.71-7.14,7.78-10.44,4.79-4.62,9.65-9.35,10.29-15.76,1.62,10.7-4.38,20.07-13.25,26.12-3.66,2.39-7.37,4.62-10.89,7.34v-.33c5.39-9,2.75-21.25,6.07-31.09l1.24-3.3c-.69,6.13,2,11.33,1.79,17.49"/><path class="cls-1" d="M203.37,119.55c.58,2,1.76,3.85,2.53,5.8-8.19-5.58-19.36-10.89-23-21.12-1.54-3.52-1.7-7.89-1.37-11.93.66,9.1,10.45,13.91,15,21.44a24.89,24.89,0,0,0,3.44,4.54c-.22-1-1.13-1.79-1.46-2.77a19.71,19.71,0,0,1-1.79-10.76c.45-4.64,2.4-9,1.66-13.85,4,8.6,2.77,19.33,5,28.65"/><path class="cls-1" d="M309.22,126.34a27.18,27.18,0,0,1-5.61,6.73c.72,0,1.35-.66,2-1.07,5.91-5.88,13.61-7.53,20-12.32a19.25,19.25,0,0,0,6-7.58c-1.21,9.76-10.92,18.91-20.07,21.82-4.73,1.27-9.79,1.68-14.38,3.25,7.78-6.68,7.34-17,12.54-24.88a79.38,79.38,0,0,1,4.95-6.68c-3.17,6.35-1.79,14.57-5.42,20.73"/><path class="cls-1" d="M211,118.09c2.75,6.76,3.79,14.41,10.14,19.52-6.87-2.25-14.92-1.62-21-5.86-6.63-4.07-12.54-11-13.78-18.55,4.57,10.33,16,11.18,23.68,17.48a18.71,18.71,0,0,0,4.48,3l.08-.08a26.12,26.12,0,0,1-5-5.47c-4.48-6.24-2.92-15-6.27-21.69a50.39,50.39,0,0,1,7.67,11.6"/><path class="cls-1" d="M292.59,138.21c-1.68,1.1-3.8,1.3-5.53,2.12,2.47.06,4.73-.82,7.18-1.07,9.07-1.43,19.46,0,25.81-7.7-2.36,5.39-8.27,9.9-13.66,11.8-9.27,3.49-18.59-.8-27.47-2.23l-1.7-.22v-.06c4.23-1,8.36-2.22,11.74-5.27,5-4.79,9.4-9.71,14.93-13.48-4.1,5.26-4.54,12.73-11.3,16.11"/><path class="cls-1" d="M229,135.71c3.52,3.08,7.76,4.51,12.21,5.42-1.07.38-2.47.27-3.63.58-8,2-16.91,5.19-25.4,2.3a24.65,24.65,0,0,1-14-11.54c7.32,8.33,19.27,5.55,29,7.73,1.37.19,2.64.74,4.09.52-1.15-.74-2.77-.66-4-1.32-7.64-2.7-8.77-11-12.92-16.55,5.31,3.52,9.76,8.27,14.65,12.86"/><path class="cls-1" d="M288.71,147c5.94,2.19,13.64,1.59,18.72-2a22.23,22.23,0,0,1-9.89,6.93c-8.25,3.08-16.86-.14-23.29-5-2.61-1.65-4.92-4-8.3-3.82a11.25,11.25,0,0,0-3.44.33,63.55,63.55,0,0,1,17.4,12.07,26.15,26.15,0,0,1-3.16,2.85c-5.11-5.52-10.8-10.83-17.16-13.93a10.89,10.89,0,0,0-3.54,1.51,53.07,53.07,0,0,0-14.14,12.62l-3.29-2.72A60.27,60.27,0,0,1,256.1,143.3c-6.27-2-10.36,3.27-15.12,5.94-5.55,3.88-13.53,5.69-20.24,3a22.07,22.07,0,0,1-9.7-6.65c5.28,3.63,13.14,4,19.13,1.65,8.06-3.49,16.42-7.92,26.13-5.8,1.51,0,3,1.54,4.42.25a31,31,0,0,1,21.58,2.72Z"/><line class="cls-2" x1="30.02" y1="152.07" x2="194.43" y2="152.07"/><line class="cls-2" x1="323.04" y1="152.07" x2="487.44" y2="152.07"/></svg>